# xmcd
#
# Track frame offsets: 
#        151
#        29735
#        45191
#        58309
#        85957
#        102671
#        139974
#        191512
#        195440
#        215814
#        220560
#        229950
#        238748
#        246234
#
# Disc length: 3444 seconds
#
# Revision: 0
# Processed by: cddbd v1.5.2PL0 Copyright (c) Steve Scherf et al.
# Submitted via: ExactAudioCopy v0.95a5
#
DISCID=d50d720e
DTITLE=殷承宗 - 花月夜
DYEAR=2003
DGENRE=Country
TTITLE0=春江花月夜
TTITLE1=平湖秋月
TTITLE2=彩云追月
TTITLE3=百鸟朝凤
TTITLE4=三六
TTITLE5=梅花三弄
TTITLE6=十面埋伏
TTITLE7=都有一颗红亮的心
TTITLE8=做人要做这样的人
TTITLE9=穷人的孩子早当家
TTITLE10=天下事难不倒共产党员
TTITLE11=浑身是胆雄赳赳
TTITLE12=血债还要血来还
TTITLE13=打不尽豺狼绝不下战场
EXTD=
EXTT0=
EXTT1=
EXTT2=
EXTT3=
EXTT4=
EXTT5=
EXTT6=
EXTT7=
EXTT8=
EXTT9=
EXTT10=
EXTT11=
EXTT12=
EXTT13=
PLAYORDER=
